<svg width="1024" height="1024" xmlns="http://www.w3.org/2000/svg">

 <g>
  <title>background</title>
  <rect fill="#343a40" id="canvas_background" height="1026" width="1026" y="-1" x="-1"/>
 </g>
 <g>
  <title>Layer 1</title>
  <path id="svg_1" fill="#ffffff" d="m986.362373,312.727c-25.785,-60.972 -62.694,-115.728 -109.705,-162.744c-47.011,-47.017 -101.762,-83.934 -162.732,-109.726c-63.135,-26.709 -130.189,-40.253 -199.329,-40.257c-69.104,0 -136.155,13.54 -199.289,40.243c-60.969,25.787 -115.721,62.699 -162.735,109.71c-47.014,47.011 -83.929,101.761 -109.72,162.728c-26.708,63.133 -40.252,130.184 -40.256,199.289c-0.004,69.109 13.533,136.165 40.234,199.304c25.785,60.973 62.696,115.728 109.707,162.743c47.011,47.018 101.762,83.935 162.732,109.727c63.136,26.708 130.19,40.253 199.323,40.257l0.009,0c69.104,0 136.153,-13.54 199.288,-40.243c60.969,-25.787 115.72,-62.699 162.733,-109.709c47.013,-47.01 83.929,-101.76 109.72,-162.728c26.708,-63.134 40.251,-130.186 40.255,-199.29c0.003,-69.11 -13.534,-136.165 -40.235,-199.304zm-471.762,663.601l-0.03,0c-124.026,-0.007 -240.627,-48.313 -328.323,-136.019c-87.694,-87.705 -135.986,-204.31 -135.979,-328.336c0.015,-256.016 208.312,-464.3 464.356,-464.3c124.026,0.007 240.626,48.312 328.32,136.017c87.695,87.706 135.986,204.311 135.979,328.337c-0.014,256.016 -208.309,464.301 -464.323,464.301z"/>
  <polygon id="svg_2" points="286.2843613624573,732.7150268554688 392.5873703956604,732.7150268554688 392.458372592926,360.27398681640625 286.156370639801,360.27398681640625 " fill="#ffffff"/>
  <path id="svg_3" fill="#ffffff" d="m759.218373,459.913c-2.603,-14.823 -6.825,-29.415 -13.292,-43.03c-3.735,-7.865 -8.44,-15.298 -14.018,-21.996c-6.509,-7.813 -15.168,-15.005 -23.963,-20.125c-7.535,-4.387 -16.126,-8.369 -24.534,-10.754c-4.985,-1.273 -10.105,-2.148 -15.301,-2.733c-15.595,-1.755 -31.854,-0.905 -47.479,0.299c-4.487,0.523 -8.942,1.156 -13.357,1.914c-4.414,0.758 -8.788,1.642 -13.107,2.635c-7.62,2.349 -14.249,6.053 -19.914,10.912c-5.665,4.86 -10.366,10.876 -14.143,17.84c-2.167,3.997 -4.043,8.214 -5.266,12.602c-0.063,0.231 -1.167,5.42 -0.94,5.42l-1.654,0l-0.13,-52.622l-106.262,0l0.129,372.522l105.559,0c0,0 0,-199.771 0,-227.093c0,-12.697 8.156,-23.276 18.619,-29.622c10.146,-6.153 22.69,-6.704 34.226,-7.451c5.264,-0.341 10.749,-0.17 15.992,0.371c9.104,0.941 18.279,3.818 25.085,10.183c11.363,10.629 13.125,26.838 13.125,41.521c0,11.863 0,23.727 0,35.591c0,17.921 0,35.841 0,53.761c0,19.175 0,38.348 0,57.521c0,15.562 0,31.124 0,46.687c0,6.179 0,12.355 0,18.533l104.563,0c0,-6.171 0,-12.342 0,-18.513c0,-15.825 0,-31.65 0,-47.477c0,-19.485 0,-38.974 0,-58.46c0,-31.925 0,-63.85 0,-95.773c0,-17.557 -0.897,-35.337 -3.938,-52.663z"/>
  <circle id="svg_4" r="53.4" fill="#ffffff" cy="281.912" cx="336.84"/>
 </g>
</svg>